<svg width="100" height="117" xmlns="http://www.w3.org/2000/svg" xmlns:xlink="http://www.w3.org/1999/xlink" xml:space="preserve" overflow="hidden"><defs><clipPath id="clip0"><rect x="1480" y="1242" width="100" height="117"/></clipPath></defs><g clip-path="url(#clip0)" transform="translate(-1480 -1242)"><path d="M1562.03 1317.08 1547.97 1317.08 1549.35 1319.85 1551.43 1326.99 1551.43 1337.35 1546.36 1349.1 1542.44 1352.78 1537.37 1356.01 1533 1358.08 1531.15 1359 1541.06 1357.62 1549.59 1354.39 1556.27 1349.1 1560.88 1341.73 1562.26 1334.36 1561.57 1327.68 1561.11 1321.46 1562.03 1317.08ZM1508.11 1317.08 1485.76 1317.08 1490.37 1317.08 1494.06 1321.46 1494.52 1324.22 1494.98 1328.37 1495.21 1332.28 1495.44 1336.2 1495.44 1336.43 1497.97 1345.87 1502.81 1353.01 1510.88 1357.39 1522.86 1359 1516.18 1355.78 1510.88 1351.63 1506.73 1346.56 1503.73 1339.42 1502.35 1334.59 1502.12 1334.36 1501.66 1331.36 1501.66 1330.9 1501.66 1328.37 1502.58 1324.22 1522.4 1324.22 1520.55 1320.31 1511.34 1320.31 1509.95 1318.69 1508.11 1317.08ZM1522.4 1324.22 1502.58 1324.22 1503.5 1326.06 1506.04 1330.9 1509.72 1336.43 1514.33 1341.04 1518.48 1342.65 1521.7 1341.27 1523.32 1336.89 1523.78 1329.75 1522.63 1324.68 1522.4 1324.22ZM1524.01 1291.29 1515.25 1291.29 1515.25 1293.36 1515.71 1298.2 1517.79 1304.88 1522.17 1312.02 1526.08 1315.47 1530 1318.46 1533.46 1321.69 1535.99 1326.3 1537.6 1331.36 1537.6 1331.82 1537.83 1334.59 1536.45 1337.58 1533.46 1341.73 1534.38 1341.73 1536.68 1341.27 1539.91 1339.65 1543.59 1336.2 1546.59 1331.82 1547.97 1328.37 1548.43 1323.99 1547.97 1317.08 1562.03 1317.08 1562.26 1315.47 1564.33 1312.71 1567.56 1311.32 1571.94 1311.09 1578.39 1311.09 1576.54 1309.48 1576.31 1309.48 1556.27 1309.48 1555.35 1308.56 1555.12 1308.1 1540.37 1308.1 1540.14 1307.18 1539.22 1304.88 1538.29 1301.65 1537.83 1297.97 1537.83 1296.58 1526.31 1296.58 1525.62 1295.2 1524.24 1291.52 1524.01 1291.29ZM1503.96 1257.66 1506.27 1259.96 1510.41 1265.72 1513.87 1272.86 1513.41 1280 1511.8 1282.54 1509.95 1284.61 1506.73 1288.29 1504.65 1291.75 1503.73 1295.66 1503.5 1299.81 1503.96 1303.72 1504.65 1309.02 1505.81 1312.48 1507.65 1315.7 1511.34 1320.31 1520.55 1320.31 1520.32 1319.85 1517.56 1315.01 1515.02 1309.48 1512.95 1303.03 1512.26 1299.12 1512.95 1295.66 1515.25 1291.29 1524.01 1291.29 1522.86 1285.76 1522.86 1278.62 1523.09 1271.02 1521.24 1266.41 1515.48 1262.5 1503.96 1257.66ZM1493.36 1310.17 1486.91 1310.4 1483.46 1311.56 1481.61 1314.32 1480 1319.85 1481.84 1318.69 1485.76 1317.08 1508.11 1317.08 1506.04 1315.24 1500.51 1311.79 1493.36 1310.17ZM1578.39 1311.09 1571.94 1311.09 1578.16 1312.02 1579.08 1312.25 1579.77 1312.48 1579.31 1312.02 1578.39 1311.09ZM1562.26 1304.88 1559.95 1305.11 1558.11 1306.49 1556.27 1309.48 1576.31 1309.48 1573.78 1307.87 1570.32 1306.26 1566.41 1305.34 1562.26 1304.88ZM1571.01 1281.38 1568.48 1281.38 1562.03 1282.31 1553.96 1285.3 1546.13 1291.29 1543.13 1295.2 1541.52 1298.2 1540.83 1301.88 1540.37 1308.1 1555.12 1308.1 1553.73 1306.03 1552.81 1301.65 1553.73 1295.89 1555.81 1290.37 1558.34 1287.14 1562.72 1284.38 1571.01 1281.38ZM1529.54 1242 1530.46 1242.69 1532.3 1244.99 1534.61 1248.45 1536.91 1253.29 1538.29 1259.73 1537.14 1265.95 1534.15 1272.86 1529.08 1281.38 1527 1284.84 1526.08 1287.83 1525.85 1290.37 1525.85 1291.75 1526.31 1296.58 1537.83 1296.58 1539.45 1286.68 1543.59 1277.24 1547.28 1268.26 1547.05 1259.27 1544.52 1252.13 1541.75 1247.99 1537.37 1245.22 1529.54 1242Z" fill-rule="evenodd"/></g></svg>