<?xml version="1.0" encoding="UTF-8" standalone="no"?>
<svg
   width="27"
   height="95"
   xml:space="preserve"
   overflow="hidden"
   version="1.1"
   id="svg11"
   xmlns="http://www.w3.org/2000/svg"
   xmlns:svg="http://www.w3.org/2000/svg"><defs
     id="defs5"><clipPath
       id="clip0"><rect
         x="1480"
         y="628"
         width="100"
         height="382"
         id="rect2" /></clipPath></defs><g
     id="g177"
     transform="translate(0.00389378,-287.64148)"><g
       clip-path="url(#clip0)"
       transform="translate(-1480,-628)"
       id="g9"><path
         d="M 1503.73,987.785 H 1483 V 1010 h 20.73 v -22.215 m 3,-72.14 H 1480 l 6.68,66.644 h 13.37 l 6.68,-66.644 m 73.04,-217.566 -0.46,-0.458 -0.92,-0.916 -1.85,-1.603 h -0.23 l -2.53,-1.603 -3.46,-1.603 -3.91,-0.916 -4.15,-0.458 -2.31,0.229 -1.84,1.374 -1.84,2.977 -0.92,-0.916 -0.23,-0.458 -1.39,-2.061 -0.92,-4.352 0.92,-5.725 2.08,-5.496 2.53,-3.207 4.38,-2.748 8.29,-2.977 h -2.53 l -6.45,0.916 -8.07,2.977 -7.83,5.955 -3,3.893 -1.61,2.977 -0.69,3.664 -0.46,6.184 -0.23,-0.916 -0.92,-2.29 -0.93,-3.207 -0.46,-3.664 v -1.374 l 1.62,-9.848 4.14,-9.389 3.69,-8.932 -0.23,-8.932 -2.53,-7.099 -2.77,-4.123 -4.38,-2.748 -7.83,-3.206 0.92,0.687 1.84,2.29 2.31,3.436 2.3,4.809 1.38,6.412 -1.15,6.184 -2.99,6.87 -5.07,8.474 -2.08,3.435 -0.92,2.977 -0.23,2.52 v 1.374 l 0.46,4.809 -0.69,-1.374 -1.38,-3.664 -0.23,-0.229 -1.15,-5.497 v -7.099 l 0.23,-7.558 -1.85,-4.58 -5.76,-3.893 -11.52,-4.81 2.31,2.29 4.14,5.726 3.46,7.099 -0.46,7.1 -1.61,2.519 -1.85,2.061 -3.22,3.664 -2.08,3.436 -0.92,3.893 -0.23,4.122 0.46,3.894 0.69,5.267 1.16,3.435 1.84,3.206 3.69,4.581 -1.39,-1.603 -1.84,-1.603 -2.07,-1.833 -5.53,-3.435 -7.15,-1.603 -6.45,0.229 -3.45,1.145 -1.85,2.748 -1.61,5.497 1.84,-1.145 3.92,-1.603 h 4.61 l 3.69,4.351 0.46,2.748 0.46,4.122 0.23,3.894 0.23,3.893 v 0.229 l 2.53,9.39 4.84,7.099 8.07,4.351 11.98,1.604 -6.68,-3.207 -5.3,-4.122 -4.15,-5.038 -3,-7.1 -1.38,-4.809 -0.23,-0.229 -0.46,-2.977 v -0.458 -2.52 l 0.92,-4.122 0.92,1.832 2.54,4.81 3.68,5.496 4.61,4.58 4.15,1.603 3.22,-1.374 1.62,-4.351 0.46,-7.1 -1.15,-5.038 -0.23,-0.458 -1.85,-3.893 -0.23,-0.458 -2.76,-4.81 -2.54,-5.496 -2.07,-6.412 -0.69,-3.894 0.69,-3.435 2.3,-4.351 v 2.061 l 0.46,4.809 2.08,6.642 4.38,7.099 3.91,3.435 3.92,2.978 3.46,3.206 2.53,4.58 1.61,5.039 v 0.458 l 0.23,2.748 -1.38,2.977 -2.99,4.122 h 0.92 l 2.3,-0.458 3.23,-1.603 3.68,-3.435 3,-4.351 1.38,-3.436 0.46,-4.351 -0.46,-6.87 1.38,2.748 2.08,7.099 v 10.306 l -5.07,11.68 -3.92,3.664 -5.07,3.206 -4.37,2.061 -1.85,0.917 9.91,-1.375 8.53,-3.206 6.68,-5.267 4.61,-7.329 1.38,-7.328 -0.69,-6.642 -0.46,-6.183 0.92,-4.351 0.23,-1.604 2.07,-2.748 3.23,-1.374 4.38,-0.229 6.22,0.916 0.92,0.229 0.69,0.229"
         fill-rule="evenodd"
         id="path7" /></g></g></svg>
