<?xml version="1.0" encoding="UTF-8" standalone="no"?>

<svg
   version="1.1"
   id="svg563"
   width="17.696735"
   height="22.938032"
   viewBox="0 0 17.696735 22.938032"
   xmlns="http://www.w3.org/2000/svg"
   xmlns:svg="http://www.w3.org/2000/svg">
  <defs
     id="defs567" />
  <g
     id="g569"
     transform="translate(-0.00653062,-0.00420017)">
    <path
       style="fill:#000000"
       d="M 1.579875,21.113492 C -0.65722797,18.641522 -0.50238597,14.780727 2.004244,10.532307 3.147891,8.5939699 3.796333,6.5432478 3.445227,5.9751464 3.094121,5.4070449 3.297534,4.9422347 3.897255,4.9422347 c 0.599721,0 1.379968,0.7545985 1.733883,1.6768855 0.575331,1.4992876 0.720808,1.4728103 1.3736085,-0.25 0.40157,-1.059787 0.472811,-3.0441174 0.158313,-4.4096229 C 6.605779,-0.46013073 6.652678,-0.48289503 9.0080665,1.0639449 12.619481,3.4356485 16.895163,9.9842147 17.577455,14.188684 c 0.696741,4.293516 -1.596725,8.753549 -4.501307,8.753549 -3.052781,0 -6.481033,-4.494579 -5.8692625,-7.694846 l 0.534677,-2.796979 -1.9906575,2.458356 c -1.271914,1.570747 -1.842938,3.464827 -1.58153,5.245913 0.475707,3.241201 -0.273064,3.518449 -2.5895,0.958815 z"
       id="path573" />
  </g>
</svg>
